<svg xmlns="http://www.w3.org/2000/svg" style="display: none;">

    <symbol id="ic_tree" viewBox="0 0 207 207">
      	<title>ic_tree</title>
      	<path d="M70.597,169.518c0.654-4.428,1.886-9.627,4.1-15.322c4.845-5.482,9.792-13.543,14.612-23.926
		c14.001-30.17,9.348-41.361,2.352-51.913c-0.376-0.567-0.746-1.126-1.104-1.684c-1.457-2.28-2.625-6.517-3.755-10.613
		c-2.238-8.117-4.955-17.952-12.294-20.419c2.72-6.727,2.217-21.148,2.017-24.246h-0.034h-7.989h0.04
		c0.542,8.412-0.499,21.077-3.091,24.103c-0.146,0.169-0.295,0.395-0.447,0.645c-8.271,2.898-13.188,10.965-18.338,19.451
		c-2.229,3.671-4.533,7.467-7.241,11.135c-7.026,9.516-2.714,16.217,0.751,21.602c2.691,4.184,5.016,7.795,3.587,13.354
		c-3.671,14.285,1.291,34.822,7.245,44.533c1.302,3.512,3.324,5.672,6.04,6.396c6.134,1.635,7.242,16.518,6.818,22.992h7.981
		c0.018-0.256,0.408-6.766-0.684-13.311C71,171.311,70.805,170.398,70.597,169.518z M45.86,81.48
		c2.923-3.959,5.323-7.912,7.644-11.736c5.972-9.839,9.977-15.907,16.775-16.659c0.18-0.02,0.355-0.03,0.526-0.03
		c4.113,0,6.329,8.039,8.285,15.132c1.347,4.884,2.619,9.497,4.726,12.794c0.38,0.596,0.776,1.192,1.177,1.798
		c4.835,7.292,10.316,15.558-2.941,44.125c-10.186,21.947-18.517,27.746-21.499,27.746c-0.409,0-0.705-0.105-1.018-0.365
		c-4.265-3.527-11.801-25.91-8.024-40.607C53.81,104.732,49.98,98.783,46.903,94C43.713,89.044,42.112,86.556,45.86,81.48z"/>
	<path d="M168.849,78.082c-1.855-28.465-4.106-56.408-4.129-56.687h-7.975c3.373,41.708,8.04,110.929,6.243,117.746
		c-1.156,2.764-4.864,4.682-8.139,6.375c-3.721,1.924-7.234,3.742-8.411,7.271c-1.616,4.85-0.561,26.463-0.198,32.818h7.986
		c-0.687-12.055-0.96-27.52-0.221-30.211c0.516-0.703,2.918-1.945,4.519-2.773c4.319-2.234,9.694-5.014,11.922-10.584
		C171.164,140.244,172.658,136.51,168.849,78.082z"/>
	<path d="M60.964,136.564c6.008,2.447,12.34-3.977,13.135-14.326c0.818-10.662,22.894-22.367-3.103-49.255
		c-5.467-5.655-22.149,8.791-17.72,24.096C57.707,112.383,54.955,134.113,60.964,136.564z"/>
	<path d="M146.238,29.618h-7.986l-0.558,14.077c-1.083,17.936-1.98,32.807-2.725,45.301
		c-3.219-29.501-4.095-67.149-4.105-67.601h-7.998c0.056,2.369,1.439,60.701,7.401,90.91c1.093,5.539,1.439,21.775,1.452,38.498
		c-0.354,10.881-0.353,21.609-0.353,34.803l0,0h7.999c0.027-1.246,0.351-17.764,0.345-34.377
		c0.563-17.537,2.051-42.156,5.97-107.051L146.238,29.618z"/>
	<path d="M108.513,78.828c-2.669-9.859-4.973-18.375-4.712-25.696c0.286-7.996,1.69-15.59,2.5-23.514
		c0.061-0.587,0.078,0.013,0.078,0h-4.241h-3.743h-0.052c-0.821,8.022-2.243,15.001-2.538,23.228
		c-0.305,8.531,2.266,18.023,4.986,28.073c2.046,7.558,4.161,15.371,5.418,23.753c1.314,8.756-2.579,17.914-7.086,28.518
		c-6.212,14.611-13.252,31.174-9.301,52.416h3.932h9.99c0,0-1.714-27.428,2.105-47.789c0.213-0.5,0.425-1,0.636-1.496
		c4.775-11.234,9.286-21.844,7.637-32.835C112.795,94.646,110.521,86.242,108.513,78.828z"/>
	</symbol>

    <symbol id="ic_king_b" viewBox="0 0 207 207">
    	<title>ic_king_b</title>
		<path d="M116.3,132.2l13,13.9c0.1,0.8,3-9.5,1.7-28.6c-0.7-10.4-15.2-20.3,0.4-43.7c1,4.7,3.5,24.6,5.2,29
		c3.7,9.7,3.9,22.5,2.4,38.3l4.9-5.4c1.3-4.2,4.6-7.4,4.7-18.3c0-7-2.1-13.4-4.5-20.8c-4.6-14.1-10.3-31.7-3.8-62.8
		c0.2-1-0.3-1.9-1.2-2.3c-0.9-0.4-2,0-2.4,0.9c-20.8,35.7-27.3,48.5-25.3,79.1C112.3,124.2,116.3,132.2,116.3,132.2z"/>
		<path d="M68.2,137c0-10.5-1.1-40.9,4.8-61.9c10.4,22.5,12.6,46.8,3.3,72c17.5-14,21.8-20.1,22.7-58.3
		c0.2-10.8-6.5-20.3-12.7-30.4c-5.5-9-11.2-18.2-13.3-28.7c-0.2-0.9-0.9-1.5-1.8-1.6c-0.9-0.1-1.7,0.4-2,1.3
		c-7.6,19.7-7.4,34.1-7.3,46.7c0.1,7.7,0.2,15-1.6,22.4c-4.3,18.2-0.4,20.7,2,30.1L68.2,137z"/>

		<path d="M120.5,170.1l-17.2-31.9L95,170.1l-42.5-26.5l9.6,29.5c0,0,23,5.9,43.3,5.9c20.3,0,40.6-5.9,40.6-5.9
		l8.5-29.5L120.5,170.1z"/>
    </symbol>
 
</svg>