<?xml version="1.0" encoding="utf-8"?>
<!-- Generator: Adobe Illustrator 16.0.0, SVG Export Plug-In . SVG Version: 6.00 Build 0)  -->
<!DOCTYPE svg PUBLIC "-//W3C//DTD SVG 1.1//EN" "http://www.w3.org/Graphics/SVG/1.1/DTD/svg11.dtd">
<svg version="1.1" id="ic_king_b" xmlns="http://www.w3.org/2000/svg" xmlns:xlink="http://www.w3.org/1999/xlink" x="0px" y="0px"
	 width="207px" height="207px" viewBox="0 0 207 207" enable-background="new 0 0 207 207" xml:space="preserve">
<g>
	<path fill="#231815" d="M115.875,143.884l3.879,6.268l13.565-3.63c-0.578-7.999-2.518-14.12-4.334-19.729
		c-3.219-9.936-6.048-18.672,0.159-35.388c0.981,4.668,2.594,8.948,4.268,13.391c3.665,9.73,7.454,19.792,5.466,36.2
		c-0.039,0.319,0.008,0.626,0.109,0.909c-0.316,0.993-0.645,2.106-0.98,3.362l4.498-1.204c1.252-4.163,2.299-6.176,3.167-7.834
		c1.831-3.502,2.713-5.669,2.742-16.555c0.019-6.976-2.069-13.374-4.485-20.781c-4.608-14.126-10.344-31.706-3.767-62.808
		c0.203-0.96-0.321-1.927-1.237-2.28c-0.92-0.354-1.955,0.012-2.448,0.86c-20.819,35.746-27.308,48.515-25.266,79.139
		C112.056,126.475,113.894,136.396,115.875,143.884z"/>
	<path fill="#231815" d="M67.528,144.856c0.031-10.523,0.889-32.531,6.729-53.577c1.563,10.242,3.204,30.115-1.425,55.488
		l11.81,4.254l1.765-1.89c1.078-3.732,2.425-7.534,3.873-11.569c4.516-12.584,9.634-26.847,8.45-46.457
		c-0.65-10.779-6.522-20.306-12.74-30.393C80.468,51.752,74.758,42.488,72.701,32c-0.172-0.875-0.902-1.531-1.791-1.608
		c-0.881-0.075-1.721,0.444-2.039,1.276c-7.558,19.707-7.4,34.055-7.263,46.713c0.084,7.688,0.164,14.95-1.577,22.388
		c-4.271,18.245-3.409,31.625-1.019,41.018L67.528,144.856z"/>
	<path fill="#231815" d="M119.352,154.4c-0.849,0.228-1.753-0.129-2.218-0.88l-11.7-18.907l-18.767,20.1
		c-0.385,0.413-0.918,0.635-1.462,0.635c-0.228,0-0.456-0.039-0.678-0.118l-30.937-11.144c0.009,0.039,0.007,0.078,0.019,0.116l8,26
		c0.192,0.625,0.679,1.117,1.302,1.316c0.65,0.208,16.226,5.095,41.892,5.095c25.699,0,39.8-4.907,40.388-5.116
		c0.612-0.217,1.081-0.719,1.256-1.345l6.963-24.867L119.352,154.4z"/>
</g>
</svg>
