<?xml version="1.0" encoding="utf-8"?>
<!-- Generator: Adobe Illustrator 16.0.0, SVG Export Plug-In . SVG Version: 6.00 Build 0)  -->
<!DOCTYPE svg PUBLIC "-//W3C//DTD SVG 1.1//EN" "http://www.w3.org/Graphics/SVG/1.1/DTD/svg11.dtd" [
	<!ENTITY st0 "fill:#231815;">
]>
<svg version="1.1" id="圖層_1" xmlns="http://www.w3.org/2000/svg" xmlns:xlink="http://www.w3.org/1999/xlink" x="0px" y="0px"
	 width="207px" height="207px" viewBox="0 0 207 207" style="enable-background:new 0 0 207 207;" xml:space="preserve">
<g>
	<g>
		<path style="&st0;" d="M129.3,146.1c0,0,4.6-9.5,3.1-17.2s-16.6-31.7-1-55.1c9.1,25,9.1,51.5,7.6,67.3c0,0,8.4-8,9.6-23.7
			c0.5-6-2.1-13.4-4.5-20.8c-4.6-14.1-10.3-31.7-3.8-62.8c0.2-1-0.3-1.9-1.2-2.3c-0.9-0.4-2,0-2.4,0.9
			c-20.8,35.7-24.9,48.1-22.9,78.7C114.6,135.1,129.3,146.1,129.3,146.1z"/>
		<path style="&st0;" d="M68.2,137c0-10.5-1.1-40.9,4.8-61.9c10.4,22.5,12.6,46.8,3.3,72c17.5-14,22.1-29.8,21.7-58.4
			c0.2-10.8-5.5-20.2-11.7-30.3c-5.5-9-11.2-18.2-13.3-28.7c-0.2-0.9-0.9-1.5-1.8-1.6c-0.9-0.1-1.7,0.4-2,1.3
			c-7.6,19.7-7.4,34.1-7.3,46.7c0.1,7.7,0.6,11.5-1.6,22.4C56.3,118.5,68.2,137,68.2,137z"/>
	</g>
	<path style="&st0;" d="M120.9,168.2c-2.7-5.1-11-20.4-15-27.8c-1.4-2.5-2.9-2-3.9,1.2c-2.4,7.6-6.5,21.4-6.6,26.6
		c-22.5-15.4-38.2-24.1-42.5-26.5c-0.4,6.1,8.1,23.2,9.6,27.2s32,8.3,44,8.3s38.1-2.7,39.9-8.3s7.1-22.2,7.1-22.2s0.1-4.2-2.1-2.7
		C144.3,148.6,128.9,159.3,120.9,168.2z"/>
</g>
</svg>
