<?xml version="1.0" encoding="utf-8"?>
<!-- Generator: Adobe Illustrator 16.0.0, SVG Export Plug-In . SVG Version: 6.00 Build 0)  -->
<!DOCTYPE svg PUBLIC "-//W3C//DTD SVG 1.1//EN" "http://www.w3.org/Graphics/SVG/1.1/DTD/svg11.dtd" [
	<!ENTITY st0 "fill:#231815;">
]>
<svg version="1.1" id="圖層_1" xmlns="http://www.w3.org/2000/svg" xmlns:xlink="http://www.w3.org/1999/xlink" x="0px" y="0px"
	 width="207px" height="207px" viewBox="0 0 207 207" style="enable-background:new 0 0 207 207;" xml:space="preserve">
<path style="&st0;" d="M74.4,169.5c0.7-4.4,1.9-9.6,4.1-15.3c4.8-5.5,9.8-13.5,14.6-23.9c14-30.2,9.3-41.4,2.4-51.9
	c-0.4-0.6-0.7-1.1-1.1-1.7c-1.5-2.3-2.6-6.5-3.8-10.6c-2.2-8.1-5-18-12.3-20.4c2.7-6.7,2.2-21.1,2-24.2l0,0h-8l0,0
	c0.5,8.4-0.5,21.1-3.1,24.1c-0.1,0.2-0.3,0.4-0.4,0.6c-8.3,2.9-13.2,11-18.3,19.5c-2.2,3.7-4.5,7.5-7.2,11.1
	c-7,9.5-2.7,16.2,0.8,21.6c2.7,4.2,5,7.8,3.6,13.4c-3.7,14.3,1.3,34.8,7.2,44.5c1.3,3.5,3.3,5.7,6,6.4c6.1,1.6,7.2,16.5,6.8,23h8
	c0-0.3,0.4-6.8-0.7-13.3C74.8,171.2,74.6,170.3,74.4,169.5z M49.6,81.5c2.9-4,5.3-7.9,7.6-11.7c6-9.8,10-15.9,16.8-16.7
	c0.2,0,0.4,0,0.5,0c4.1,0,6.3,8,8.3,15.1c1.3,4.9,2.6,9.5,4.7,12.8c0.4,0.6,0.8,1.2,1.2,1.8c4.8,7.3,10.3,15.6-2.9,44.1
	c-10.2,21.9-18.5,27.7-21.5,27.7c-0.4,0-0.7-0.1-1-0.4c-4.3-3.5-11.8-25.9-8-40.6c2.3-8.9-1.5-14.9-4.6-19.7
	C47.5,89,45.9,86.6,49.6,81.5z"/>
<path style="&st0;" d="M164.9,78.1c-1.9-28.5-4.1-56.4-4.1-56.7h-8c3.4,41.7,8,110.9,6.2,117.7c-1.2,2.8-4.9,4.7-8.1,6.4
	c-3.7,1.9-7.2,3.7-8.4,7.3c-1.6,4.8-0.6,26.5-0.2,32.8h8c-0.7-12.1-1-27.5-0.2-30.2c0.5-0.7,2.9-1.9,4.5-2.8
	c4.3-2.2,9.7-5,11.9-10.6C167.2,140.2,168.7,136.5,164.9,78.1z"/>
<path style="&st0;" d="M64.7,136.6c6,2.4,12.3-4,13.1-14.3c0.8-10.7,15.6-29.1-2.4-52.9C70.7,63.1,50.6,82.6,57,97.1
	C65.3,116,58.7,134.1,64.7,136.6z"/>
<path style="&st0;" d="M127.2,78.8c-2.7-9.9-5-18.4-4.7-25.7c0.3-8,1.7-15.6,2.5-23.5c0.1-0.6,0.1,0,0.1,0h-4.2h-3.7h-0.1
	c-0.8,8-2.2,15-2.5,23.2c-0.3,8.5,2.3,18,5,28.1c2,7.6,4.2,15.4,5.4,23.8c1.3,8.8-2.6,17.9-7.1,28.5c-6.2,14.6-13.3,31.2-9.3,52.4
	h3.9h10c0,0-1.7-27.4,2.1-47.8c0.2-0.5,0.4-1,0.6-1.5c4.8-11.2,9.3-21.8,7.6-32.8C131.5,94.6,129.2,86.1,127.2,78.8z"/>
</svg>
