<?xml version="1.0" encoding="utf-8"?>
<!-- Generator: Adobe Illustrator 16.0.0, SVG Export Plug-In . SVG Version: 6.00 Build 0)  -->
<!DOCTYPE svg PUBLIC "-//W3C//DTD SVG 1.1//EN" "http://www.w3.org/Graphics/SVG/1.1/DTD/svg11.dtd">
<svg version="1.1" id="圖層_1" xmlns="http://www.w3.org/2000/svg" xmlns:xlink="http://www.w3.org/1999/xlink" x="0px" y="0px"
	 width="207px" height="207px" viewBox="0 0 207 207" enable-background="new 0 0 207 207" xml:space="preserve">
<g>
	<path fill="#231815" d="M-63.024,80.316c-0.287-0.189-0.567-0.379-0.875-0.568c-1.209-0.742-2.266-0.077-3.178,1.356
		c-2.394,3.759-3.803,12.825-4.414,15.794c-0.843,4.102,0.307,16.69,1.266,19.761c1.502,4.815,3.256,4.819,4.85,2.92
		c1.6-1.904,3.035-5.718,3.9-8.538c0.211-0.686,0.391-1.314,0.526-1.839C-58.424,99.534-49.125,89.485-63.024,80.316z"/>
	<path fill="#231815" d="M-49.331,83.071c-3.113-10.686-11.564-24.665-17.167-27.165c-2.464-7.323-2.153-18.869-2.149-18.994
		c0.032-1.104-0.836-2.026-1.938-2.059c-1.116-0.047-2.026,0.834-2.06,1.938c-0.017,0.524-0.315,11.625,2.117,19.63
		c-2.19,1.913-2.938,6.642-3.767,11.938c-0.459,2.935-0.933,5.969-1.623,8.023c-0.571,1.705-1.454,3.697-2.388,5.807
		c-2.506,5.659-5.346,12.074-4.437,17.631c6.038,36.925,9.968,41.839,14.569,42.298c-3.691,14.649-2.1,39.233-1.842,40.003
		c0.281,0.835,1.061,1.363,1.896,1.363c0.211,0,0.426-0.034,0.639-0.105c0.951-0.32,1.504-1.287,1.33-2.247
		c-0.287-2.448-1.658-28.457,2.666-40.792c4.902-4.439,9.479-16.093,9.594-24.285c0.078-5.64,1.498-10.588,2.871-15.373
		C-49.276,94.62-47.633,88.893-49.331,83.071z M-54.862,99.58c-1.378,4.803-2.938,10.247-3.025,16.419
		c-0.075,5.358-1.773,10.608-3.76,14.658c-1.844,3.759-3.933,6.481-5.203,7.284c-0.174,0.108-0.332,0.183-0.471,0.219
		c-2.214-0.061-5.8-4.294-11.473-38.985c-0.717-4.382,1.866-10.218,4.146-15.367c0.973-2.197,1.892-4.272,2.522-6.154
		c0.797-2.375,1.298-5.579,1.782-8.678c0.328-2.104,0.801-5.111,1.378-7.2c0.293-1.06,0.612-1.887,0.955-2.231
		c0.667,0.212,1.798,1.207,3.161,2.787c3.662,4.242,9.02,12.734,11.678,21.856C-51.797,88.902-53.217,93.851-54.862,99.58z"/>
	<path fill="#231815" d="M-157.774,141.146c-3.332-0.686-5.573-1.268-6.323-3.018c-1.649-4.661,2.576-64.233,5.628-100.688
		c0.092-1.101-0.726-2.068-1.826-2.16c-1.103-0.091-2.067,0.726-2.16,1.826c-1.345,16.067-7.922,96.523-5.326,102.579
		c1.639,3.823,5.833,4.686,9.202,5.379c3.714,0.764,5.502,1.315,5.854,3.08c0.965,4.824,0.673,23.879,0.384,33.28
		c-0.034,1.104,0.833,2.026,1.938,2.062c0.021,0,0.042,0,0.062,0c1.076,0,1.965-0.854,1.998-1.938
		c0.035-1.128,0.836-27.712-0.46-34.188C-149.715,142.802-154.185,141.884-157.774,141.146z"/>
	<path fill="#231815" d="M-137.792,170.157c0.249-5.53,0.05-11.084-0.043-16.617c-0.204-12.124-0.382-24.243-0.671-36.365
		c-0.293-12.264-0.444-24.526-0.454-36.793c-0.004-5.548-0.063-11.095-0.254-16.64c-0.207-6.038-1.304-11.992-1.431-18.035
		c-0.058-2.715-4.274-2.721-4.217,0c0.114,5.43,1.091,10.771,1.354,16.186c0.3,6.157,0.318,12.327,0.33,18.489
		c0.026,12.911,0.192,25.813,0.5,38.722c0.29,12.121,0.453,24.24,0.657,36.363c0.089,5.307,0.194,10.611-0.044,15.914
		c-0.154,3.438-0.581,7.373,0.65,10.666c0.944,2.521,5.021,1.432,4.066-1.121C-138.57,177.652-137.944,173.575-137.792,170.157z"/>
	<path fill="#231815" d="M-121.669,28.418c-0.571,13.356-0.98,26.719-1.92,40.056c-0.945,13.434-3.035,26.743-4.097,40.167
		c-1.052,13.311-0.789,26.654-0.695,39.992c0.044,6.196,0.22,12.387,0.431,18.578c0.154,4.51,0.818,9.234,0.031,13.713
		c-0.467,2.659,3.596,3.796,4.066,1.121c1.564-8.902-0.079-18.852-0.244-27.836c-0.254-13.908-0.473-27.884,0.363-41.773
		c0.847-14.072,3.105-28,4.219-42.05c1.106-13.963,1.464-27.978,2.062-41.968C-117.336,25.699-121.554,25.71-121.669,28.418z"/>
	<path fill="#231815" d="M-88.979,103.886c-0.375-13.625,2.893-26.435,6.08-39.543c3.205-13.182,0.227-25.6,0.022-38.876
		c-0.042-2.717-4.259-2.721-4.217,0c0.106,6.928,1.183,13.762,1.687,20.662c0.514,7.033-0.675,13.69-2.402,20.483
		c-3.142,12.351-5.522,24.47-5.388,37.274c0.14,13.066,3.476,25.761,5.907,38.519c2.48,13.012,2.305,25.904,2.305,39.08
		c0,2.72,4.217,2.72,4.217,0c0-12.303,0.186-24.414-1.812-36.596C-84.827,131.172-88.595,117.864-88.979,103.886z"/>
</g>
<g>
	<path fill="#231815" d="M148.977,78.316c-0.287-0.189-0.568-0.379-0.875-0.568c-1.209-0.742-2.266-0.077-3.178,1.356
		c-2.395,3.759-3.803,12.825-4.414,15.794c-0.844,4.102,0.307,16.69,1.266,19.761c1.502,4.815,3.256,4.819,4.85,2.92
		c1.6-1.904,3.035-5.718,3.9-8.538c0.211-0.686,0.391-1.314,0.525-1.839C153.576,97.534,162.875,87.485,148.977,78.316z"/>
	<path fill="#231815" stroke="#231815" stroke-width="3" stroke-miterlimit="10" d="M162.67,83.071
		c-3.113-10.686-11.564-24.665-17.168-27.165c-2.463-7.323-2.152-18.869-2.148-18.994c0.031-1.104-0.836-2.026-1.939-2.059
		c-1.115-0.047-2.025,0.834-2.059,1.938c-0.018,0.524-0.316,11.625,2.117,19.63c-2.191,1.913-2.939,6.642-3.768,11.938
		c-0.459,2.935-0.932,5.969-1.623,8.023c-0.57,1.705-1.453,3.697-2.387,5.807c-2.506,5.659-5.346,12.074-4.438,17.631
		c6.039,36.925,9.969,41.839,14.57,42.298c-3.691,14.649-2.1,39.233-1.842,40.003c0.281,0.835,1.061,1.363,1.896,1.363
		c0.211,0,0.426-0.034,0.639-0.105c0.951-0.32,1.504-1.287,1.33-2.247c-0.287-2.448-1.658-28.457,2.666-40.792
		c4.902-4.439,9.479-16.093,9.594-24.285c0.078-5.64,1.498-10.588,2.871-15.373C162.725,94.62,164.367,88.893,162.67,83.071z
		 M157.139,99.58c-1.379,4.803-2.939,10.247-3.025,16.419c-0.076,5.358-1.773,10.608-3.76,14.658
		c-1.844,3.759-3.934,6.481-5.203,7.284c-0.174,0.108-0.332,0.183-0.471,0.219c-2.215-0.061-5.801-4.294-11.473-38.985
		c-0.717-4.382,1.865-10.218,4.146-15.367c0.973-2.197,1.891-4.272,2.521-6.154c0.797-2.375,1.299-5.579,1.783-8.678
		c0.328-2.104,0.801-5.111,1.377-7.2c0.293-1.06,0.613-1.887,0.955-2.231c0.668,0.212,1.799,1.207,3.162,2.787
		c3.662,4.242,9.02,12.734,11.678,21.856C160.203,88.902,158.783,93.851,157.139,99.58z"/>
	<path fill="#231815" stroke="#231815" stroke-width="3" stroke-miterlimit="10" d="M54.226,141.146
		c-3.332-0.686-5.573-1.268-6.323-3.018c-1.649-4.661,2.576-64.233,5.628-100.688c0.092-1.101-0.726-2.068-1.826-2.16
		c-1.103-0.091-2.067,0.726-2.16,1.826c-1.345,16.067-7.922,96.523-5.326,102.579c1.639,3.823,5.833,4.686,9.202,5.379
		c3.714,0.764,5.502,1.315,5.854,3.08c0.965,4.824,0.673,23.879,0.384,33.28c-0.034,1.104,0.833,2.026,1.938,2.062
		c0.021,0,0.042,0,0.062,0c1.076,0,1.965-0.854,1.998-1.938c0.035-1.128,0.836-27.712-0.46-34.188
		C62.285,142.802,57.815,141.884,54.226,141.146z"/>
	<path fill="#231815" stroke="#231815" stroke-width="3" stroke-miterlimit="10" d="M76.208,170.157
		c0.249-5.53,0.05-11.084-0.043-16.617c-0.204-12.124-0.382-24.243-0.671-36.365c-0.293-12.264-0.444-24.526-0.454-36.793
		c-0.004-5.548-0.063-11.095-0.254-16.64c-0.207-6.038-1.304-11.992-1.431-18.035c-0.058-2.715-4.274-2.721-4.217,0
		c0.114,5.43,1.091,10.771,1.354,16.186c0.3,6.157,0.318,12.327,0.33,18.489c0.026,12.911,0.192,25.813,0.5,38.722
		c0.29,12.121,0.453,24.24,0.657,36.363c0.089,5.307,0.194,10.611-0.044,15.914c-0.154,3.438-0.581,7.373,0.65,10.666
		c0.944,2.521,5.021,1.432,4.066-1.121C75.43,177.652,76.056,173.575,76.208,170.157z"/>
	<path fill="#231815" stroke="#231815" stroke-width="3" stroke-miterlimit="10" d="M93.331,28.418
		c-0.571,13.356-0.98,26.719-1.92,40.056c-0.945,13.434-3.035,26.743-4.097,40.167c-1.052,13.311-0.789,26.654-0.695,39.992
		c0.044,6.196,0.22,12.387,0.431,18.578c0.154,4.51,0.818,9.234,0.031,13.713c-0.467,2.659,3.596,3.796,4.066,1.121
		c1.564-8.902-0.079-18.852-0.244-27.836c-0.254-13.908-0.473-27.884,0.363-41.773c0.847-14.072,3.105-28,4.219-42.05
		c1.106-13.963,1.464-27.978,2.062-41.968C97.664,25.699,93.446,25.71,93.331,28.418z"/>
	<path fill="#231815" stroke="#231815" stroke-width="3" stroke-miterlimit="10" d="M120.021,103.886
		c-0.375-13.625,2.893-26.435,6.08-39.543c3.205-13.182,0.227-25.6,0.021-38.876c-0.041-2.717-4.258-2.721-4.217,0
		c0.107,6.928,1.184,13.762,1.688,20.662c0.514,7.033-0.676,13.69-2.402,20.483c-3.143,12.351-5.523,24.47-5.389,37.274
		c0.141,13.066,3.477,25.761,5.908,38.519c2.48,13.012,2.305,25.904,2.305,39.08c0,2.72,4.217,2.72,4.217,0
		c0-12.303,0.186-24.414-1.812-36.596C124.174,131.172,120.404,117.864,120.021,103.886z"/>
</g>
</svg>
